# xmcd CD database file
#
# Track frame offsets:
#	150
#	20690
#	39891
#	62479
#	83004
#	102123
#
# Disc length: 1660 seconds
#
# Revision: 2
# Processed by: cddbd v1.5.2PL0 Copyright (c) Steve Scherf et al.
# Submitted via: CDex 1.70beta3
#
DISCID=3a067a06
DTITLE=KAT-TUN - CHANGE UR WORLD
DYEAR=1900
DGENRE=blues
TTITLE0=CHANGE UR WORLD
TTITLE1=GIVE ME, GIVE ME, GIME ME
TTITLE2=NEVER × OVER ～「-」 IS YOUR PART～
TTITLE3=CHANGE UR WORLD -original karaoke-
TTITLE4=GIVE ME, GIVE ME, GIME ME -original karaoke-
TTITLE5=NEVER × OVER ～「-」 IS YOUR PART～ -original karaoke-
EXTD=
EXTT0=
EXTT1=
EXTT2=
EXTT3=
EXTT4=
EXTT5=
PLAYORDER=
